<svg xmlns="http://www.w3.org/2000/svg" id="surface1" width="17.173" height="20.166" viewBox="0 0 17.173 20.166">
    <path id="Path_1221" fill="#00dd80" d="M16.766 13.467a10.174 10.174 0 0 1-2.437 3.8 12.755 12.755 0 0 1-4.762 2.822 1.457 1.457 0 0 1-.463.082h-.017a1.478 1.478 0 0 1-.284-.028 1.539 1.539 0 0 1-.2-.053 12.754 12.754 0 0 1-4.768-2.82 10.155 10.155 0 0 1-2.435-3.8 21.859 21.859 0 0 1-.88-7.978v-.036c.009-.2.015-.4.018-.627a2.137 2.137 0 0 1 2.014-2.094A8.294 8.294 0 0 0 8.2.356l.01-.012a1.292 1.292 0 0 1 1.754 0l.013.012a8.3 8.3 0 0 0 5.645 2.379 2.137 2.137 0 0 1 2.013 2.094c0 .228.009.433.018.627v.015a21.9 21.9 0 0 1-.887 7.996zm0 0" data-name="Path 1221" transform="translate(-.5)"/>
    <path id="Path_1222" fill="#00aa63" d="M226.611 13.471a10.174 10.174 0 0 1-2.437 3.8 12.755 12.755 0 0 1-4.762 2.822 1.457 1.457 0 0 1-.463.082V0a1.294 1.294 0 0 1 .86.343l.013.012a8.3 8.3 0 0 0 5.645 2.379 2.137 2.137 0 0 1 2.013 2.094c0 .228.009.433.018.627v.015a21.9 21.9 0 0 1-.887 8.001zm0 0" data-name="Path 1222" transform="translate(-210.345 -.004)"/>
    <path id="Path_1223" fill="#fff" d="M100.946 133.424a5.032 5.032 0 0 1-5.008 5.026h-.018a5.026 5.026 0 1 1 0-10.052h.018a5.032 5.032 0 0 1 5.008 5.026zm0 0" data-name="Path 1223" transform="translate(-87.334 -123.341)"/>
    <path id="Path_1224" fill="#e1ebf0" d="M223.957 133.424a5.032 5.032 0 0 1-5.008 5.026V128.4a5.032 5.032 0 0 1 5.008 5.024zm0 0" data-name="Path 1224" transform="translate(-210.345 -123.341)"/>
    <path id="Path_1225" fill="#b4d2d7" d="M158.992 212.99l-2.264 2.264-.489.489a.592.592 0 0 1-.837 0l-1.052-1.052a.592.592 0 0 1 .837-.837l.634.634 2.334-2.334a.592.592 0 1 1 .837.837zm0 0" data-name="Path 1225" transform="translate(-148.125 -203.63)"/>
    <path id="Path_1226" fill="#6fa5aa" d="M221.213 212.99l-2.264 2.264v-1.674l1.427-1.427a.592.592 0 0 1 .837.837zm0 0" data-name="Path 1226" transform="translate(-210.345 -203.63)"/>
</svg>
